<?xml version="1.0" encoding="UTF-8"?>
<!-- Generator: Adobe Illustrator 24.3.0, SVG Export Plug-In . SVG Version: 6.00 Build 0)  -->
<svg version="1.1" id="Layer_1" xmlns="http://www.w3.org/2000/svg" xmlns:xlink="http://www.w3.org/1999/xlink" x="0px" y="0px" viewBox="0 0 340 350" style="enable-background:new 0 0 340 350;" xml:space="preserve">
<style type="text/css">
	.st0{fill-rule:evenodd;clip-rule:evenodd;fill:#9FEF00;}
	.st1{fill-rule:evenodd;clip-rule:evenodd;fill:#111927;}
	.st2{fill:#A4B1CD;}
	.st3{fill-rule:evenodd;clip-rule:evenodd;fill:#8692AD;}
	.st4{fill-rule:evenodd;clip-rule:evenodd;fill:#FFFFFF;}
	.st5{fill-rule:evenodd;clip-rule:evenodd;fill:#A4B1CD;}
	.st6{fill-rule:evenodd;clip-rule:evenodd;fill:#608929;}
	.st7{fill-rule:evenodd;clip-rule:evenodd;fill:#7B89A3;}
	.st8{fill:#9FEF00;}
</style>
<g id="Layer_2_2_">
	<g id="Layer_1-2_1_">
		<path class="st0" d="M170,349.5c-2.6,0-4.9-1.1-7.3-2.1l-54.6-25.7l-0.2-0.1c-3-1.7-3.8-2.2-5-5.6l-0.1-0.2l-2-7.5v-0.1    l-40.2-16.4c-3.2-1.3-7.5-2.2-9.8-5c-1.9-2.4-2.1-5.2-2.1-8.1c0-0.9,0-1.8,0-2.7v-14c0-0.1-0.1-0.3-0.1-0.4    c-0.6-0.2-1.3-0.4-1.9-0.3h-13c-2.4,0-4.5,0-6.5-1.8s-2.2-4.1-2.2-6.6v-26.5c0-4,0.3-3.3,2.9-6.3c-5.4-0.8-10.2-3.7-13.4-8.1    c-2.1-2.9-4.3-7.3-3.7-10.9c0.4-2.7,3.4-6,5.2-8.1c2.7-3.2,5.6-6.3,8.5-9.3c2.6-2.7,5.2-5.4,8-8c1.9-1.9,3.9-3.7,6.1-5.3    c1.1-0.7,2.2-1.6,3.3-2.4c1.9-1.4,3.7-2.9,5.6-4.2c1.2-1.6,1.5-4.5,1.5-6.3V125c0-4.5-0.6-10.9,1.8-14.8c1.3-2,3.1-3.6,5.2-4.7    c2.4-1.5,4.8-2.8,7.2-4.3l13.3-8.3l1.2-4.1v-0.1c0.8-2.5,1.5-5.1,3.5-7c1.8-1.7,4.4-2.3,6.7-3.1H88L120.7,67    c1.6-0.8,2.9-2,3.8-3.5c0.5-1,1.1-2,1.7-3c4.1-6.4,12.9-9.8,19.9-11.8c7.3-2.1,14.9-3.5,22.5-4.2h0.5h0.5c7.6,0.7,15,2.1,22.3,4.1    c7,2,15.8,5.5,19.9,11.8c0.7,1.1,1.4,2.3,2,3.4c0.4,0.6,0.9,1.2,1.4,1.7l36.8,13h0.1c2.3,0.9,4.8,1.4,6.7,3.1c2,1.9,2.7,4.5,3.5,7    v0.1l1.2,4.1l13.3,8.3c2.4,1.5,4.8,2.9,7.2,4.3c2.1,1.1,4,2.7,5.3,4.7c2.4,3.9,1.8,10.4,1.8,14.8v33.9c0,1.7,0.4,4.6,1.6,6l1.4,1    c10.6,7.4,20.9,15.2,31.4,22.7c6.1,4.3,3.7,14.4,0.5,19.8c-2,3.5-5,6.3-8.8,7.8c-2,0.8-4.2,1.2-6.4,1.2c2.9,5.1,3.7,5.1,3.7,10.9    V250c-0.1,2.9,0.2,5.4-1.7,7.9c-2.2,3-5.7,3.5-9.2,3.4h-10.5c-0.6,0-1.3,0.1-1.8,0.3c-0.1,0.1-0.1,0.2-0.1,0.4v12.8    c0,3.9,0.5,8.8-2.1,12c-2.2,2.8-6.5,3.7-9.8,5l-40.2,16.4v0.1l-2,7.5L237,316c-1.2,3.5-1.9,3.9-5,5.6l-0.2,0.1l-54.6,25.7    C174.9,348.4,172.6,349.5,170,349.5"/>
		<path class="st1" d="M285.5,255.7l-0.1-84.7l4.4,3.3l0.2-4.2c0,0-4.5-2.2-4.7-11.1v-34c0-14.7,1.2-11-11.5-19l-15.2-9.5l-1.7-6.1    c-2-5.8-1.2-4.4-6.9-6.7l-37.7-13.3c-1.8-1.4-3.2-3.1-4.2-5.1c-1.7-3.1-1.6-0.1-1.1,3.2l-37-13h0l-39,13.7c0.6-3.6,0.8-7.2-1-3.9    c-1.5,3-4,5.4-7.1,6.8l-0.5,0.2l0,0L90,83.8c-5.7,2.2-4.9,0.8-6.9,6.7l-1.7,6.1l-15.2,9.5c-12.7,7.9-11.5,4.3-11.5,19v32.5    c0,9.4-4.7,11.6-4.7,11.6l0.2,4.2l4.4-3.3l-0.2,85.7h231.1V255.7z"/>
		<path class="st1" d="M169.1,50.1c0,0-31.1,2.7-37.9,13.4c-6.8,10.7-16,42.8-19.5,50.7c-3.5,8-14.7,15.9-15.1,20.1    c-0.4,4.2,5.1,13.3,5.1,13.3s-4.9-3.8-8.2-3c-2.2,0.6-4.4,1.5-6.3,2.7c0,0-2.3-1.4-6.2-0.3c-4,1-34.7,25.4-39.2,28.2    c-4.4,2.9-24.9,24.4-25.2,26.7c-0.4,2.3,3.3,11.3,12.5,12.6c3.3,0.5,6.7,0.2,9.8-0.9l0,0c0,0,3-0.9-0.4,3.1    c-1.3,1.5-2.7,3.1-4,4.6c-3.5,4.1-3.7,3-3.7,8.3v23.3c0,2.9,0.2,2.8,3,2.8h13c6.1,0,7.5,3.8,7.7,6v17h231.1v-17.1    c0.2-2.2,1.5-6,7.7-6h10.5c5.7,0.1,5-1.5,5.1-5.8v-18.5c0-6.8,0.1-5.8-3.3-11.7l-3.9-7c-2.1-3.7,1.4-2.5,1.4-2.5l0,0    c3.2,1.2,7.9,2.3,12.1,0.6c7.4-2.9,10.4-15.3,7-17.7s-23-16.7-31.4-22.6s-11.5-7.3-13.9-8.5c-7.4-3.6-7.2-11.8-23.2-13.2    c-4.2-0.4-8.5,0.3-12.3,2.1c-0.6-0.5-1.1-1.1-1.5-1.7c-0.9-1.1-1.6-2.2-2.3-3.5c1.6-2.9,4.4-8.5,4.1-11.5    c-0.4-4.2-11.7-12.1-15.1-20.1c-3.5-8-12.6-40.1-19.5-50.7C200.2,52.8,169.1,50.1,169.1,50.1"/>
		<path class="st1" d="M62.7,286.5l40.4,16.5c3,1.2,2.3,0.7,3.2,3.8l2,7.3c0.7,1.9,0.5,1.5,2.4,2.5l54.5,25.6    c2.9,1.3,3.8,1.6,4.8,1.6s2-0.3,4.8-1.6l54.5-25.6c1.9-1.1,1.7-0.6,2.4-2.5l2-7.3c0.8-3.1,0.2-2.6,3.2-3.8l40.4-16.5    c8.8-3.6,8.3-1.2,8.3-11.7v-17.4l-11.8-16.2H66.1l-11.7,17.5v16.1C54.4,285.3,54,282.9,62.7,286.5"/>
		<path class="st2" d="M166.6,328.7l-47.2-20.3c-2.3-1-1.8-1-2.7-3.4l-3.4-8.4c-0.8-1.9-0.4-1.6-2.3-2.4L80.2,281    c-1.8-0.8-1.1-2.4,0.6-1.7l31.4,13c2.6,1.1,2.2,0.5,3.3,3.1l2.2,5.2c1,2.3,0.6,1.9,2.9,2.9l46,20.1c3.9,1.7,2.9,1.7,6.8,0l46-20.1    c2.3-1,1.9-0.6,2.9-2.9l2.2-5.2c1.1-2.6,0.7-2,3.3-3.1l31.4-13c1.7-0.7,2.4,1,0.6,1.7l-30.7,13.3c-1.9,0.8-1.6,0.5-2.3,2.4    l-3.4,8.4c-1,2.4-0.5,2.4-2.8,3.4l-47.2,20.3C169.4,330.4,170.5,330.4,166.6,328.7"/>
		<path class="st0" d="M169,106.1c-11.3,1.1-22.2,4.3-32.3,9.5c-17,8.7-22.5,18.3-22.7,19.4c-0.1,1.1,6.3,10.7,10.7,15.3    c2.7,2.9,4.2,4.3,5,5l0,0l0.2,0.2c0.2,0.2,0.5,0.3,0.4,0c-0.6-1.8-3-8.2-2.9-8.2c0.1,0.1,0.3,0.2,0.4,0.4c2.6,3,15,16.8,23.4,24    c9.4,8.1,17.8,10.8,17.8,10.8s8.4-2.7,17.8-10.8c2-1.8,4.3-3.9,6.7-6.2l0,0l22-13.1c0,0,1.6-0.9-1,1.3    c-9.1,7.4-19.8,15.6-19.8,15.6l-4.9,10.2c-0.2,0.4-0.6,1.4,0.8,0.2l2.7-2.9l0,0c0.6-0.7,1.1-1.2,1.6-1.7l4.5-4.8    c0,0,16.1-10.3,22.7-13.1c5.7-2.4,11.5,0.1,13,0.9c0.3,0.2,0.4,0.2,0.1,0.5c-1,1.1-4.1,4.6-4.5,4.9s-3.2,0.6-6.3,2.6    c-2.2,1.7-4.2,3.7-5.7,6.1c1.6-1.2,3.4-2.2,5.3-3c2.4-0.9,6.8-1.9,7.5-2c0.8-0.1,2.5-2.2,6.8-4.8c4.2-2.7,11.8-6.2,18.6-4.4    c2.7,0.6,5.2,1.9,7.2,3.7c1.1,1.2,1,1.3,0.6,1.2l-0.7-0.3l0,0c-4.5-2.1-9.6-2.5-14.4-1.4c-8.5,2.3-10.5,4.8-14.8,9    s-13.5,8.7-14.8,9.8c-1.3,1-8.6,9.7-14.3,17.5c-5.6,7.8-6.2,0.6-2-6.6c2.8-4.7,6.2-9.1,10-13c0,0-5.4,2.1-13.5,10.7s-9,14-9,14    c-1.9,0.7-4,0.9-6.1,0.6c-3.3-0.5-3.8-2.9-3.8-2.9V195c3.5-1.5,5.2-5.5,3.7-9s-5.5-5.2-9-3.7s-5.2,5.5-3.7,9    c0.1,0.2,0.2,0.4,0.3,0.6l0,0c-0.4,1.1-0.6,2.3-0.5,3.4v4.9c0,5.1-3,4.6-3,4.6s-3,0.4-3-4.6v-4.9c0.1-1.2-0.1-2.3-0.5-3.4l0,0    c1.8-3.3,0.6-7.5-2.8-9.4c-3.3-1.8-7.5-0.6-9.4,2.8c-1.8,3.3-0.6,7.5,2.8,9.4c0.2,0.1,0.4,0.2,0.7,0.3v5.3c-2,2.7-5.3,3.9-8.6,3.1    c-5.8-1.3-6.7-5.2-6.7-5.2s2.3-1.9,2.9-3.5c0.5-1.6-20.8-21.5-22.1-22.4c-1.2-0.8-7.9-5.6-10.2-7.2l0,0c-0.5-0.3-0.5-0.1-0.4,0.1    l0.2,0.2l0,0l2.4,3.8c0.3,0.5,0.4,0.8-0.3,0.3c-3.8-2.3-19.4-12.1-20.7-12.7c-1.6-0.6-3.3-1.1-5-1.3c-0.5-0.1-0.4-0.2,0-0.3    c2.7-0.6,7.3-2.4,8.6-2.3c1.7,0.2,18.2,9.8,21.9,12l0,0l0,0c0.6,0.3,0.5,0.1,0.4,0l-7-8.9c0,0-0.5-0.7,1.9,0.7l1.2,0.7l0.3,0.2    c7.4,4.2,22.4,12.9,23.4,13.5c0.8,0.5,4.6,4.5,7.3,7.5c0.1,0.1,0.3,0.3,0.4,0.4l0,0l0.9,1c1.4,1.4,0.8-0.1,0.8-0.1l0,0l-4.9-10.2    c0,0-22.9-17.4-30.2-24.6s-7.7-8.2-7-10.3s13-14.9,28.7-24.1c3.3-1.9,6.4-3.6,9.3-4.9l0,0c2.7-1.3,1.6-1.3,1.4-1.3    c-13.5,1-25.2,10.5-25.2,10.5s0.2-1.5,2.1-4.1s5.9-5,8.2-9s5.6-18.2,5.8-20.3c0.2-2.1-2.5-0.6-2.5-0.6c-0.6,0.7-1.2,1.3-1.6,1.6    c0,0,3.3-11.6,11.1-14.3c12-4.2,27.5-9.7,38.3-0.2c3.3,2.9,3.2,8.7,3.2,8.7s-2.9-1-6.7-1.8c-3-0.5-6.1-0.9-9.2-1    c0,0-3.7,0-10.4,3.1c-3.4,1.6-6.5,3.7-9.2,6.3l0,0l-0.2,0.2c-0.4,0.4-1,1.2,0.8,0.6l0,0l0.7-0.3l0,0c0.3-0.1,0.7-0.3,1.1-0.4    c1-0.3,2-0.7,3.3-1.1c4.6-1.3,9.2-2.3,13.9-3c20.1,1,20.6,21.4,19.3,21.7l-0.4-0.1l0,0c-7.1-1.3-13.9-1.3-18.9,0.8    c16.3-0.3,42.7,9.2,53,29.8l0,0l0.1,0.1c0.1,0.2,0.2,0.6-0.2,0.2l-0.9-0.8l0,0c-0.1-0.2-0.3-0.3-0.5-0.5    C206.2,116.6,189.8,107.3,169,106.1"/>
		<path class="st3" d="M159.4,184.1c2.2,0,4,1.6,4.3,3.8c-0.8-1.3-2.9-1.9-4.8-1.2c-2.1,0.7-3.4,2.6-3,4.2c-1.4-1.9-1-4.6,0.9-6    C157.6,184.4,158.5,184.1,159.4,184.1"/>
		<path class="st4" d="M159.3,189.3c0.8,1.8,1.3,3.8,1.4,5.8c0.1,3,0,7.7,0,7.7s-0.2,2,1.3,1.8c1.4-0.1,1.5-0.7,1.4-3.5    s0.4-5.6-0.8-8.2C161.9,191.3,160.8,190.1,159.3,189.3"/>
		<path class="st4" d="M169,173.9c-5.3-0.4-10.4-2.7-14.3-6.3c-6.3-6.1-13.9-13.3-13.9-13.3l2.9-0.3c0,0-5.4-2.8-6.7-6.5    c-0.9-3-1.4-6-1.6-9.1c0,0,4,0.7,5.1,1.7s4.5,6,11.9,6.8c7.5,0.7,9.8-1,9.8-1c0,1.1,0,2.2,0.2,3.2c0.3,1.5,0.6,1.6,0.6,1.6    c0.5-2,1.3-3.9,2.2-5.6c1.3-2.1,2.3-4,2.2-5.2c-0.1-0.7-0.3-1.4-0.7-2c0,0-1,2.8-2.6,3.7c-1.6,1-3.5,0.2-6.2-1.3s-4.4-3.7-0.2-4    c4.2-0.4,11.3-0.1,11.3-0.1s7.1-0.2,11.3,0.1s2.4,2.6-0.2,4c-2.7,1.5-4.6,2.3-6.2,1.3s-2.5-3.8-2.5-3.8c-0.4,0.6-0.7,1.3-0.7,2    c0,1.1,1,3.1,2.2,5.2c1,1.8,1.7,3.7,2.2,5.6c0,0,0.3-0.2,0.6-1.6c0.2-1.1,0.2-2.1,0.2-3.2c0,0,2.3,1.8,9.7,1s10.8-5.7,11.9-6.8    c1.1-1.1,5-1.7,5-1.7c-0.2,3.1-0.8,6.2-1.6,9.1c-1.3,3.7-6.7,6.5-6.7,6.5l2.9,0.3c0,0-7.5,7.2-13.9,13.3    C179.4,171.3,174.4,173.5,169,173.9"/>
		<path class="st4" d="M157.5,143.5c0,0-5.8-4.8-8.7-6c-2.9-1.1-3.3-0.7-6.4-3s-4.5-3-7.5-3s-3,2.6-4.5,3.7c-1.5,1-3-0.3-4.3-2    s-3.9-1-3.9-1s2.7,0.1,3.7,1.9s3,3.3,5.3,2.1s1.8-3.1,3.9-3.2c2.1-0.1,4.6,1,7.5,4.1c2.5,2.8,5.7,4.8,9.3,5.8    C156.3,144.3,157.5,143.5,157.5,143.5"/>
		<path class="st1" d="M164.4,153.2c0.4,1,1.2,1.8,2.2,2.3c0.8,0.5,1.6,0.9,2.5,1.2c0.9-0.3,1.7-0.7,2.5-1.2c1-0.5,1.7-1.3,2.2-2.3    l-4.6,1.1L164.4,153.2z"/>
		<path class="st1" d="M152.9,150.4c0,0-0.8,0.4-2,3c-0.7,1.3-0.9,2.9-0.4,4.4c0.6-0.8,1.2-1.6,1.8-2.3l0.4-0.3l1.9,8.9    c5.8,6.4,22.9,6.4,28.8,0l1.9-8.9l0.4,0.3c0.7,0.7,1.3,1.5,1.8,2.3c0.5-1.5,0.3-3.1-0.4-4.4c-1.2-2.6-2-3-2-3    c-0.4,2.6-2.1,4.9-4.5,6c-5.8,2.9-17.4,2.9-23.2,0C155,155.3,153.3,153.1,152.9,150.4"/>
		<path class="st5" d="M135.4,138.5c0,0,0.1,1.6,0.4,3.7c2.9,2,6.1,3.4,9.5,4.2c2.5,0.6,5.1,0.8,7.6,0.6h-0.5    c-7.5-0.7-10.8-5.7-11.9-6.8C139.5,139.2,135.4,138.5,135.4,138.5"/>
		<path class="st5" d="M157.7,136.3c-4.2,0.4-2.5,2.6,0.2,4s4.5,2.3,6.2,1.3c1.6-1,2.5-3.7,2.5-3.7c0.4,0.6,0.7,1.3,0.7,2    c0,1.1-1,3.1-2.2,5.2c-0.2,0.3-0.4,0.6-0.5,1c2.9-0.5,5.8-0.5,8.7,0c-0.2-0.3-0.3-0.6-0.5-1c-1.3-2.1-2.3-4-2.2-5.2    c0.1-0.7,0.3-1.4,0.7-2c0,0,1,2.8,2.6,3.7s3.5,0.2,6.2-1.3s4.4-3.7,0.2-4c-4.2-0.4-11.3-0.1-11.3-0.1S161.9,136,157.7,136.3"/>
		<path class="st4" d="M157.5,158.9c0,0,0.8,2.4,2.3,3c4.1,1.7,14.5,1.7,18.7,0c1.5-0.6,2.3-3,2.3-3c-1,0.4-2,0.7-3,1    c-5.6,1.4-11.5,1.4-17.1,0C159.5,159.6,158.4,159.3,157.5,158.9"/>
		<path class="st4" d="M77.4,170.2c0,0-0.1,17.9,6.8,20.2c6.8,2.4,12-2.3,13.7-4.6c0.9-1,1.5-2.2,2-3.5l-11.4-17.7    c-1.7-2.7-5-7.4-8.6-6.2c-4.2,1.4-4.8,5.6-4.8,5.6c-0.3,0-3,0.1-3.3,0.1S50,179.4,49,181.4c-0.7,1.3-10.6,10.9-16.5,17.1    c-3.1,3.2-2.3,5.5-2,5.9c0.9,1.2,0.3,1.7,5.5,1.4s7.1-2.5,7.1-2.5s7.6-15.6,9.3-17.7c1.7-2.1,20.1-14.6,19-13.3    s-16.2,18.4-16.6,19.1c-0.4,0.7-4.9,18.9-3.4,20.9c1.6,2,11.9,3.4,14.1-5.8c2.3-9.2-0.8-13.4,0.4-15.2c1.2-1.7,6.9-8.6,6.9-8.6    c0-2.5,0.4-4.9,1.1-7.3C74.8,173.5,75.9,171.7,77.4,170.2"/>
		<path class="st4" d="M94.8,164.9l12.4,16.8l3.2,5.8c0,0,0.2-1.8,0.6-1.6s6.8,8.8,14.1,9.2c7.2,0.4,8.9-2.1,8.7-2.8    s-13.3-13.3-13.9-13.7S94.8,164.9,94.8,164.9"/>
		<path class="st3" d="M178.7,184.1c-2.2,0-4,1.6-4.3,3.8c0.8-1.3,2.9-1.9,4.8-1.2c2.1,0.7,3.4,2.6,3,4.2c1.4-1.9,1-4.6-0.9-6.1    C180.5,184.4,179.6,184.1,178.7,184.1"/>
		<path class="st4" d="M178.8,189.3c-0.8,1.8-1.3,3.8-1.4,5.8c-0.1,3,0,7.7,0,7.7s0.2,2-1.3,1.8c-1.4-0.1-1.5-0.7-1.4-3.5    s-0.4-5.6,0.8-8.2C176.2,191.3,177.3,190.1,178.8,189.3"/>
		<path class="st4" d="M180.6,143.5c0,0,5.8-4.8,8.7-6c2.9-1.1,3.3-0.7,6.4-3s4.5-3,7.5-3s3,2.6,4.5,3.7c1.5,1,3-0.3,4.3-2    c1.4-1.7,3.9-1,3.9-1s-2.7,0.1-3.7,1.9c-1.1,1.8-3,3.3-5.3,2.1s-1.8-3.1-3.9-3.2c-2.1-0.1-4.6,1-7.5,4.1c-2.5,2.8-5.7,4.8-9.3,5.8    C181.8,144.3,180.6,143.5,180.6,143.5"/>
		<path class="st5" d="M202.7,138.5c0,0-0.1,1.6-0.4,3.7c-2.9,2-6.1,3.4-9.5,4.2c-2.5,0.6-5.1,0.8-7.6,0.6h0.5    c7.5-0.7,10.8-5.7,11.9-6.8C198.6,139.2,202.7,138.5,202.7,138.5"/>
		<path class="st5" d="M32.5,198.5c-0.7,0.7-1.3,1.4-1.9,2.1c-7.2,8.1,8,6.5,12.6,2.7c0,0,7.6-15.6,9.3-17.7    c1.1-1.4,10.2-7.8,15.4-11.2c0,0-15.2,7.6-16.5,9.1s-8.3,14.8-13,15.7C36.4,199.7,34.3,199.4,32.5,198.5"/>
		<path class="st5" d="M62,190.5c-1,1.3,0.4,2.6-0.6,13.7c-0.2,4-2.7,7.6-6.3,9.4c3.7,0.4,9-1,10.5-7.2c2.3-9.2-1-13.5,0.4-15.2    c11.2-13.2,5.6-3.7,8.1-15.9c0.4-1.4,1.1-2.7,2.1-3.8c-1.3,0.7-2.4,1.7-3.1,3c-1.1,2-2,4.1-2.5,6.3C70.5,180.9,63,189.2,62,190.5"/>
		<path class="st5" d="M77.4,170.2c0,0-0.1,17.9,6.8,20.2c6.8,2.4,12-2.3,13.7-4.6c0.9-1,1.5-2.2,2-3.5l-2.3-3.5    c-0.8,3-3.2,5.4-6.2,6c-5.4,1.3-8-1.3-8-1.3l-4.8-17.1c-0.6,0.4-1,1.1-1.2,1.8c-0.3,0.8-0.5,1.7-0.6,2.5    C77.2,170.4,77.4,170.1,77.4,170.2"/>
		<path class="st5" d="M125,195.2c4.4,0.2,6.8-0.6,7.9-1.4c-2.9,0.2-8-0.3-13.9-5.4c-6.7-5.9-17.1-16.6-24.2-23.4l12.4,16.8    C108.2,191.7,121.6,195,125,195.2"/>
		<path class="st4" d="M213.2,203.6c0,0,2.5,4.1,8.6,1.9s7.2-11.6,7.7-13.9c0.5-2.3,5.3-8.1,11.3-12.2s7.5-4.3,7.5-4.3    s-5,6.5-8.3,10.7s-3.5,3.7-3.6,5.1c-0.1,1.4,0.6,9.2-0.5,14.3s-1.4,6.3-1.4,6.3s3.6,7.8,10.5,3.6s4.8-21.9,5.1-22.5    s3.2-6.4,12.7-5.4c9.5,1,10.5,6.8,10.6,7.5s-1,14.9,2.1,17.5s5.2,3,8.8,2.4c2.2-0.3,4.3-1.5,5.5-3.4c0-0.3-2.9-19.1-4.4-21    s-11.7-10.8-11.7-10.8s16.2,7.5,17.8,8.6c1.7,1,3.2,10.6,4.3,11.2s8.5,4.9,12.7,3.3c4.2-1.6,4.9-3.6,4.7-5.1s-28.6-17.9-35.2-21.6    s-9.3-3.5-9.3-3.5s-3.5-4.1-6.3-5.1c-2.9-1-4.8,2.3-7.3,1.9c-2.5-0.4-2.2-1.6-5.5-1.5s-10.8,8.4-18,13.4s-9.2,5.3-9.7,6    C221.5,187.6,213.2,203.5,213.2,203.6"/>
		<path class="st5" d="M224.2,197.4c-2.9,7.6-8.9,8-8.9,8c1.4,0.7,3.5,1.2,6.4,0.1c6-2.2,7.2-11.6,7.7-13.9c0.4-1.8,3.6-5.9,7.9-9.6    c0,0-8.1,3.8-8.8,5S227.1,189.8,224.2,197.4"/>
		<path class="st5" d="M245.2,210.4c-1.2,1.1-2.7,1.9-4.2,2.3c-3,0.9-6.4-1.1-6.4-1.1s3.6,7.8,10.5,3.6s4.8-21.9,5.1-22.5    c0.4-0.7,3.2-6.4,12.7-5.4c9.5,1,10.5,6.8,10.6,7.5c0.1,0.6-1,14.9,2.1,17.5s5.2,3,8.8,2.4c1.1-0.2,2.2-0.5,3.1-1.1    c-5.5,1-9.5-2.2-10.3-5.7c-0.9-3.5-0.7-11.1-1.1-14.6S265.9,181,258,183c-4.8,1.1-8.9,4.3-11.2,8.7c-1,1.6,0.4,2,0.4,7.8    C246.9,203,246.3,206.8,245.2,210.4"/>
		<path class="st5" d="M296,199c1.1,0.6,8.5,4.9,12.7,3.3c2.8-1.1,4-2.3,4.5-3.4c0,0-6,1-8.6-0.1c-1.8-0.7-7.4-3.7-10.6-5.5    C294.7,196,295.4,198.7,296,199"/>
		<path class="st5" d="M216.9,80.3l30.3,11.3c2.5,1,2,0.4,2.6,3.1l1.6,7.3c0.3,1.2,0.1,1,1.2,1.5l18.4,9.1c0.3,0.1,0.6,0.3,0.8,0.5    c0.6,0.8,0.6,2-1,1.2L249.6,104c-0.8-0.4-0.7-0.2-0.9-1.1l-1.3-6.2c-0.4-2.1-0.1-1.7-2-2.4l-29-10.9    C214.2,82.7,215.6,79.8,216.9,80.3"/>
		<path class="st5" d="M123.1,80.3L92.8,91.7c-2.5,1-2,0.4-2.6,3.1l-1.6,7.3c-0.3,1.2-0.1,1-1.2,1.5L69,112.7    c-0.3,0.1-0.6,0.3-0.8,0.5c-0.6,0.8-0.6,2,1,1.2l21.2-10.3c0.9-0.4,0.7-0.2,0.9-1.1l1.3-6.2c0.4-2.1,0.1-1.7,2-2.4l29-10.9    C125.8,82.7,124.4,79.8,123.1,80.3"/>
		<path class="st6" d="M83.2,128.9l15.9-7.4c-0.1-0.2-0.1-0.4-0.1-0.7c0-0.1,0-0.3,0-0.4l-9-2.9c-0.2,0.5-0.7,0.8-1.2,0.8    c-0.2,0-0.3,0-0.5-0.1l-5.7,10C82.9,128.4,83.1,128.6,83.2,128.9 M90.2,116.4c0.1,0.2,0.1,0.4,0.1,0.6c0,0.1,0,0.1,0,0.2l9,2.9    c0.4-0.9,1.4-1.4,2.4-1.2l4.8-12.5c-0.1-0.1-0.2-0.2-0.3-0.3L90.2,116.4z M99.8,122.3L85.7,136l4,5.9c0.2-0.1,0.4-0.1,0.6-0.1    c0.1,0,0.3,0,0.4,0.1l9.4-19.3C100,122.5,99.9,122.4,99.8,122.3z M85.5,135.6l14-13.6c-0.1-0.1-0.1-0.1-0.2-0.2l-16,7.4    c0.1,0.2,0.1,0.5,0.1,0.7c0,0.6-0.3,1.3-0.8,1.7L85.5,135.6z M80.5,131.8L69,151.6c0,0,0,0,0.1,0l16.2-15.7l-2.8-4.1    c-0.3,0.2-0.7,0.3-1,0.3C81.1,132.1,80.8,132,80.5,131.8L80.5,131.8z M68,151.2c0.2,0,0.5,0.1,0.7,0.2l11.5-19.6    c-0.6-0.4-0.9-1.1-0.9-1.8c0-0.2,0-0.4,0.1-0.6L68.5,125c-0.2,0.3-0.5,0.5-0.8,0.6L68,151.2z M81.4,127.8c0.3,0,0.6,0.1,0.9,0.2    c1.9-3.3,3.9-6.7,5.8-10c-0.3-0.3-0.5-0.7-0.5-1.1c0-0.1,0-0.3,0.1-0.4l-5.2-2.4l0.5-0.2l4.8,2.3c0.4-0.6,1.3-0.8,1.9-0.4    c0.1,0.1,0.2,0.1,0.3,0.2l15.9-10.3c-0.1-0.2-0.1-0.3-0.1-0.5c0-0.3,0.1-0.6,0.3-0.8l-4.9-5.3l0.4-0.1l4.8,5.2    c0.2-0.1,0.5-0.2,0.7-0.2c0.1,0,0.3,0,0.4,0.1l4.3-8.9l0.5-0.2l-4.5,9.3c0.6,0.4,0.7,1.2,0.3,1.8c-0.3,0.4-0.8,0.6-1.3,0.5    L102,119c0.4,0.2,0.8,0.6,1,1.1l7-1.8c-0.1,0.2-0.2,0.3-0.4,0.5l-6.5,1.6c0,0.1,0,0.2,0,0.3c0,1.1-0.9,2-2,2c-0.2,0-0.5,0-0.7-0.1    c-3.1,6.5-6.2,12.9-9.4,19.3c0.6,0.4,0.8,1.3,0.4,1.9c-0.4,0.6-1.3,0.8-1.9,0.4c-0.4-0.2-0.6-0.7-0.6-1.1c0-0.4,0.2-0.8,0.5-1    l-3.9-5.9l-16.1,15.6c0.2,0.3,0.4,0.7,0.4,1.1c0,1-0.8,1.8-1.7,1.8c-1,0-1.8-0.8-1.8-1.7c0-0.5,0.2-0.9,0.5-1.3    c0.2-0.2,0.5-0.4,0.9-0.5l-0.2-25.7c-0.7-0.1-1.2-0.7-1.1-1.4s0.7-1.2,1.4-1.1c0.6,0.1,1.1,0.6,1.1,1.2c0,0.1,0,0.2,0,0.3    l10.7,4.4c0.2-0.3,0.4-0.6,0.7-0.8L74.6,118l0.4-0.2l5.7,10.1C80.8,127.9,81.1,127.8,81.4,127.8z"/>
		<path class="st6" d="M256.8,128.9l-16-7.4c0.1-0.2,0.1-0.4,0.1-0.7c0-0.1,0-0.3,0-0.4l9-2.9c0.2,0.5,0.7,0.8,1.2,0.8    c0.2,0,0.3,0,0.5-0.1l5.8,10C257.2,128.4,257,128.6,256.8,128.9 M249.9,116.4c-0.1,0.2-0.1,0.4-0.1,0.6c0,0.1,0,0.1,0,0.2l-9,2.9    c-0.4-0.9-1.4-1.4-2.4-1.2l-4.8-12.5c0.1-0.1,0.2-0.2,0.3-0.3L249.9,116.4z M240.2,122.3l14.1,13.7l-4,5.9    c-0.2-0.1-0.4-0.1-0.6-0.1c-0.1,0-0.3,0-0.4,0.1l-9.4-19.3C240,122.5,240.1,122.4,240.2,122.3z M254.5,135.6l-14-13.6    c0.1-0.1,0.1-0.1,0.2-0.2l15.9,7.4c-0.1,0.2-0.1,0.5-0.1,0.7c0,0.6,0.3,1.3,0.8,1.7L254.5,135.6z M259.5,131.8l11.5,19.7l0,0    l-16.2-15.7l2.8-4c0.3,0.2,0.7,0.3,1,0.3S259.2,132,259.5,131.8L259.5,131.8z M272.1,151.2c-0.2,0-0.5,0.1-0.7,0.2l-11.5-19.6    c0.7-0.5,1.1-1.5,0.8-2.3l10.8-4.4c0.2,0.3,0.5,0.5,0.8,0.6L272.1,151.2z M258.6,127.8c-0.3,0-0.6,0.1-0.9,0.2    c-1.9-3.3-3.9-6.7-5.8-10c0.3-0.3,0.5-0.7,0.5-1.1c0-0.1,0-0.3-0.1-0.4l5.2-2.4l-0.5-0.2l-4.9,2.3c-0.3-0.4-0.7-0.6-1.1-0.6    c-0.4,0-0.8,0.2-1,0.5l-15.9-10.3c0.1-0.2,0.1-0.3,0.1-0.5c0-0.3-0.1-0.6-0.3-0.8l4.9-5.3l-0.4-0.1l-4.8,5.2    c-0.2-0.1-0.5-0.2-0.7-0.2c-0.1,0-0.3,0-0.4,0.1l-4.3-8.9l-0.5-0.2l4.5,9.3c-0.6,0.4-0.7,1.2-0.3,1.8c0.3,0.4,0.8,0.7,1.4,0.5    L238,119c-0.5,0.2-0.8,0.6-1,1.1l-7-1.8c0.1,0.2,0.2,0.3,0.4,0.5l6.5,1.6c0,0.1,0,0.2,0,0.3c0,1.1,0.9,2,2,2c0.2,0,0.5,0,0.7-0.1    L249,142c-0.4,0.3-0.6,0.7-0.6,1.2c0,0.8,0.6,1.4,1.3,1.4c0.8,0,1.4-0.6,1.4-1.3c0-0.4-0.2-0.8-0.5-1l3.9-5.9l16.1,15.6    c-0.2,0.3-0.4,0.7-0.4,1.1c0,1,0.8,1.7,1.7,1.7c1,0,1.7-0.8,1.7-1.7c0-0.5-0.2-0.9-0.5-1.2c-0.2-0.2-0.5-0.4-0.9-0.5l0.2-25.7    c0.7-0.1,1.2-0.7,1.1-1.4c-0.1-0.7-0.7-1.2-1.4-1.1c-0.6,0.1-1.1,0.6-1.1,1.3c0,0.1,0,0.2,0,0.3l-10.8,4.3    c-0.2-0.3-0.4-0.6-0.7-0.8l5.7-10.1l-0.4-0.2l-5.7,10.1C259.2,127.9,258.9,127.8,258.6,127.8z"/>
		<path class="st6" d="M163.6,98.8c-7.5,2.6-12.2,3.7-12.2,3.7l5.3,1.1c0,0-17.4,3.8-32.8,20.1c4-3.1,8.2-5.8,12.8-8.1    c10.1-5.2,21-8.4,32.3-9.5c20.7,1.2,37.1,10.5,51.5,24.2c0.2,0.1,0.3,0.3,0.5,0.5l0,0l0.9,0.8c0.5,0.4,0.3,0,0.2-0.2l0,0    c-9.7-19.6-33.7-29.2-50.2-30h-0.4h-0.4c-2-0.1-0.7-0.5-0.3-0.7l0,0h0.1l0,0c4.8-1.4,10.7-1.2,16.9-0.1l0,0l0.4,0.1    c1.2-0.3,0.9-17.2-14.3-21l-0.5-0.1l-0.2-0.1l-0.6-0.1h-0.2l-0.7-0.1h-0.1l-0.8-0.1h-0.1c-0.3,0-0.6-0.1-0.9-0.1l0,0l-1-0.1    c-4.2,0.6-8.3,1.5-12.4,2.5c2.6-0.4,12.4-2.1,12.4,2.4l0,0l0,0C169.1,87.6,168.6,95.6,163.6,98.8L163.6,98.8z"/>
		<path class="st6" d="M169,73.5c3.1,0.1,6.2,0.4,9.2,1c3.8,0.8,6.7,1.8,6.7,1.8s0.1-5.7-3.2-8.7c-3.5-3.1-8-4.9-12.7-5.2v5.4    c0,1.7-0.7,1.8-1.9,2.2c-4.8,2-9.1,5-12.6,8.9c1.3-0.8,2.7-1.6,4.2-2.2C165.4,73.6,169,73.6,169,73.5"/>
		<path class="st4" d="M149.9,86.9l-11.7,4.6c0,0,2.4-17.6,5.9-20l11.4-7.6c-4.2,1.1-8.3,2.5-12.1,3.9c-7.9,2.8-11.1,14.3-11.1,14.3    c0.4-0.4,1-1,1.6-1.6c0,0,2.7-1.5,2.5,0.6s-3.5,16.3-5.8,20.2c-2.3,3.9-6.3,6.3-8.2,9c-1.9,2.6-2.1,4.1-2.1,4.1    c5.6-4.3,12-7.5,18.8-9.4c-0.9-0.6-2.1-1.5-2.2-1.9c0.2-2.7,1.3-5.2,3-7.2C142.2,93.6,149.9,87,149.9,86.9"/>
		<path class="st6" d="M178.7,181.6c3.8,0,6.9,3.1,6.9,6.9c0,2.8-1.7,5.4-4.3,6.4v5.3c0,0,0.5,2.4,3.8,2.9c2,0.3,4.1,0.1,6.1-0.6    c0,0,0.9-5.4,9-14c6.3-6.6,10.9-9.3,12.7-10.3l0,0c0,0,0.7-0.3-0.2,0.6l0,0c-3.4,3.7-6.5,7.7-9.1,12c-4.2,7.2-3.6,14.3,2,6.6    c5.6-7.8,12.9-16.5,14.3-17.5c1.3-1,10.6-5.6,14.8-9.8s6.3-6.7,14.8-9c4.8-1.2,9.9-0.7,14.4,1.4l0,0l0.1,0.1    c0.2,0.1,0.4,0.2,0.6,0.3c0.4,0.1,0.5,0-0.6-1.2l0,0c-1-1-2.3-1.8-3.6-2.4c-1.2-0.5-2.4-1-3.6-1.3c-0.7-0.2-1.5-0.3-2.2-0.4    c-6.1-0.6-12.6,2.4-16.3,4.8c-4.2,2.7-6,4.7-6.8,4.8s-5.2,1.2-7.5,2c-1.6,0.7-3.2,1.5-4.7,2.6c-0.3,0.1-0.4,0.1,0.5-1.1    c1.3-1.7,2.8-3.3,4.6-4.5c3.1-2,5.8-2.3,6.3-2.6c0.2-0.1,0.9-0.9,1.7-1.8c-2-0.8-5.6-2-7.6-1.3c-10.1,3.1-24,12.6-33.2,18.8l0,0    c-2.1,1.4-2,0.6-1.8,0.1l4.9-10.1c0,0,10.7-8.2,19.8-15.6c2.6-2.1,1-1.3,1-1.3l-22,13.1c-2.3,2.3-4.6,4.4-6.7,6.2    c-9.4,8.1-17.8,10.8-17.8,10.8s-8.4-2.7-17.8-10.8c-9.4-8.1-23.3-23.9-23.3-23.9l15.5,21.5l5,10.5c5.9,4.5,1.7,4.8,4.2,10.3    c-0.1-0.5-0.2-1-0.2-1.5c0-3.8,3.1-6.9,6.9-6.9c3.8,0,6.9,3.1,6.9,6.9c0,1.2-0.3,2.3-0.9,3.4c0.4,1.1,0.6,2.3,0.5,3.4v4.9    c0,5.1,3,4.6,3,4.6s3,0.4,3-4.6v-4.9c-0.1-1.2,0.1-2.3,0.5-3.4c-1.8-3.4-0.6-7.6,2.8-9.4C176.4,181.9,177.5,181.6,178.7,181.6"/>
		<g>
			<path class="st4" d="M302,164.9h-4.1v5h-4.4v3.5h8.6L302,164.9z M296.1,161.4h-6.9v6.9h6.9V161.4z M292.3,150h-5.8v5.8h5.8V150z      M280.3,136.1h-3.4v3.4h3.4V136.1z M281.5,145.1h-3.4v3.4h3.4V145.1z M313.5,190.3h-7.7v7.7h7.7V190.3z M303.1,188h-6.8v6.8h6.8     V188z M309.4,177.4h-7.7v7.6h7.7V177.4z"/>
		</g>
		<g>
			<path class="st4" d="M37.4,163.8h4.2v5H46v3.5h-8.5v-8.5H37.4z M43.3,160.3h6.9v6.9h-7L43.3,160.3z M47.1,148.9h5.8v5.8H47     L47.1,148.9z M59.1,135h3.4v3.4h-3.4V135z M57.8,144h3.4v3.4h-3.4V144z M25.8,189.1h7.6v7.7h-7.6     C25.8,196.8,25.8,189.1,25.8,189.1z M36.2,186.9H43v6.8h-6.8V186.9z M29.9,176.3h7.7v7.7H30L29.9,176.3z"/>
		</g>
		<g>
			<path class="st4" d="M68.1,179.8H63v5.1h5.1V179.8z M64.8,169.7h-6.9v6.9h6.9V169.7z M71,163h-4.3v4.3H71V163z M64,164.8h-3v3h3     V164.8z M79.4,156.3h-5.2v5.2h5.2V156.3z M72.9,152.6h-3v3h3V152.6z M76.5,146.1h-4.6v4.5h4.5L76.5,146.1z M78.5,140.1h-3v3h3     V140.1z M59.3,189.3h-6.9v6.9h6.9V189.3z"/>
		</g>
		<g>
			<path class="st4" d="M267.3,180.9h5.7v5.7h-5.7V180.9z M271.1,169.5h7.8v7.8H271L271.1,169.5z M264.1,161.9h4.9v4.9h-4.9V161.9z      M271.9,164h3.4v3.4h-3.4V164z M254.6,154.4h5.8v5.9h-5.8L254.6,154.4L254.6,154.4z M261.9,150.3h3.4v3.4h-3.4V150.3z      M257.9,142.9h5.1v5.1h-5.1V142.9z M255.6,136.1h3.4v3.4h-3.4V136.1z M277.2,191.6h7.8v7.8h-7.8V191.6z"/>
		</g>
		<path class="st6" d="M100.4,262.8l22.9,13.7c0.1-0.1,0.3-0.1,0.4-0.2l-1.7-8.9h-0.2c-1,0-1.9-0.9-1.9-1.9v-0.1l-19.4-3    C100.5,262.6,100.5,262.7,100.4,262.8 M124.8,278.8l4.3,8.3c0.2,0,0.3-0.1,0.5-0.1h0.2l7.4-24.7c-0.3-0.1-0.6-0.4-0.7-0.7    l-12.7,3.6c0,0.1,0,0.2,0,0.4c0,0.9-0.6,1.6-1.4,1.8l1.7,9c0.7,0,1.3,0.6,1.3,1.3C125.4,278.1,125.2,278.5,124.8,278.8    L124.8,278.8z M100.1,263.4l6.7,9.7c0.9-0.5,2.1-0.2,2.6,0.7c0.2,0.3,0.3,0.6,0.3,1c0,0.1,0,0.1,0,0.2l13.2,2.3    c0.1-0.2,0.2-0.4,0.3-0.5l-22.8-13.6C100.2,263.2,100.1,263.3,100.1,263.4L100.1,263.4z M105.7,275l-23.8-2.4l46.3,15.3    c0.1-0.3,0.3-0.6,0.6-0.7l-4.2-8.3c-0.1,0-0.3,0.1-0.4,0.1c-0.8,0-1.4-0.6-1.4-1.3l0,0v-0.1l-13.2-2.3c-0.1,1-1,1.8-2,1.8    C106.4,276.9,105.6,276,105.7,275L105.7,275z M98.1,263.1l-5.1,2.6l12.9,8.2c0.1-0.2,0.3-0.4,0.5-0.6l-6.7-9.7    c-0.2,0.1-0.4,0.1-0.6,0.1C98.7,263.7,98.3,263.5,98.1,263.1L98.1,263.1z M81.5,272.2l24.1,2.4c0-0.1,0-0.3,0.1-0.4l-13.1-8.3    l-11.1,5.5c0,0.1,0.1,0.3,0.1,0.4C81.6,272,81.6,272.1,81.5,272.2L81.5,272.2z M81.5,258.9c-0.3,0.4-0.7,0.7-1.3,0.8l0.1,10.9    c0.4,0,0.7,0.2,1,0.6l10.9-5.4L81.5,258.9z M81.7,258.4v0.1l10.9,6.9l5.3-2.7c0-0.1-0.1-0.3-0.1-0.4c0-0.2,0-0.3,0.1-0.5    L81.7,258.4z M239.6,262.8l-22.9,13.7c-0.1-0.1-0.3-0.1-0.4-0.2l1.7-8.9h0.2c1,0,1.9-0.9,1.9-1.9v-0.1l19.4-3    C239.5,262.5,239.6,262.7,239.6,262.8L239.6,262.8z M215.2,278.7L211,287c-0.2,0-0.3-0.1-0.5-0.1h-0.2l-7.4-24.7    c0.3-0.1,0.6-0.4,0.7-0.7l12.7,3.6c0,0.1,0,0.2,0,0.4c0,0.9,0.6,1.6,1.4,1.8l-1.7,9c-0.7,0-1.3,0.6-1.3,1.3    C214.6,278.1,214.9,278.5,215.2,278.7L215.2,278.7z M239.9,263.3l-6.7,9.7c-0.3-0.2-0.6-0.2-1-0.2c-1,0-1.9,0.9-1.9,1.9    c0,0.1,0,0.1,0,0.2l-13.1,2.4c-0.1-0.2-0.2-0.4-0.3-0.5l22.8-13.6C239.8,263.2,239.9,263.3,239.9,263.3L239.9,263.3z M234.3,275    l23.8-2.4l-46.3,15.3c-0.1-0.3-0.3-0.6-0.6-0.7l4.3-8.3c0.1,0,0.3,0.1,0.4,0.1c0.8,0,1.4-0.6,1.4-1.3l0,0v-0.1l13.2-2.3    c0.1,1,1,1.8,2,1.8C233.6,276.9,234.4,276,234.3,275L234.3,275z M241.9,263.1l5.1,2.6l-12.9,8.2c-0.1-0.2-0.3-0.4-0.5-0.6l6.7-9.7    c0.2,0.1,0.4,0.1,0.6,0.1C241.3,263.7,241.7,263.5,241.9,263.1L241.9,263.1z M258.4,272.2l-24.1,2.4c0-0.1,0-0.3-0.1-0.4l13.2-8.3    l11.1,5.5c0,0.1-0.1,0.3-0.1,0.4C258.4,272,258.5,272.1,258.4,272.2L258.4,272.2z M258.4,258.9c0.3,0.4,0.7,0.7,1.2,0.8v11    c-0.4,0-0.7,0.2-1,0.6l-10.9-5.4L258.4,258.9z M258.3,258.4v0.1l-10.9,6.9l-5.3-2.7c0-0.1,0.1-0.3,0.1-0.4c0-0.2,0-0.3-0.1-0.5    L258.3,258.4z M260.6,270.7c-0.2-0.1-0.4-0.2-0.6-0.2l0.1-10.8c0.8-0.1,1.4-0.7,1.5-1.5l9.2,0.4l0.1,0.1L260.6,270.7z M261,271.1    c0-0.1-0.1-0.1-0.1-0.2l10.3-12.1c0.2,0.2,0.5,0.3,0.8,0.2l0,0l-0.2,4.9c-0.8,0.1-1.4,0.7-1.4,1.5c0,0.2,0,0.4,0.1,0.5L261,271.1z     M259.9,256.4c-0.9,0-1.7,0.7-1.7,1.6l0,0l0,0l-16.3,3.5c-0.2-0.3-0.6-0.5-1-0.5l-1-5.1h-0.4l1,5.1c-0.3,0.1-0.5,0.2-0.7,0.5    l-9.6-5.6h-0.7l10.1,5.9v0.1l-19.5,3c-0.2-0.9-1-1.4-1.9-1.4l0,0l-2-7.6h-0.4l2,7.6c-0.6,0.1-1.2,0.6-1.4,1.2l-12.7-3.4    c0-0.1,0-0.1,0-0.2c0-0.8-0.6-1.4-1.3-1.4s-1.4,0.6-1.4,1.3c0,0.8,0.6,1.4,1.3,1.4l0,0h0.2l7.4,24.7c-0.2,0.1-0.3,0.2-0.5,0.3    l-9.5-4.8v0.3l9.2,4.8c-0.3,0.7,0,1.6,0.7,1.9s1.6,0,1.9-0.7c0.1-0.2,0.1-0.4,0.1-0.6c0,0,0,0,0-0.1l46.8-15.5    c0.3,0.3,0.6,0.5,1,0.5c0.8,0,1.4-0.6,1.4-1.3c0-0.1,0-0.2,0-0.3l9.6-5.1c0.5,0.7,1.4,0.9,2.1,0.4s0.9-1.4,0.4-2.1    c-0.2-0.3-0.6-0.6-1-0.6c0.1-1.6,0.1-3.3,0.2-4.9c0.8-0.2,1.3-1.1,1.1-1.9c-0.2-0.8-1.1-1.3-1.9-1.1c-0.8,0.2-1.3,1.1-1.1,1.9v0.1    l-9-0.4C261.4,257,260.7,256.5,259.9,256.4L259.9,256.4z M79.4,270.7c0.2-0.1,0.4-0.2,0.6-0.2l-0.1-10.8c-0.8-0.1-1.4-0.6-1.5-1.4    l-9.2,0.4l-0.1,0.1L79.4,270.7z M79,271.1c0-0.1,0.1-0.1,0.1-0.2l-10.3-12c-0.2,0.2-0.5,0.2-0.8,0.2l0,0l0.2,4.9    c0.8,0.1,1.4,0.7,1.4,1.5c0,0.2,0,0.4-0.1,0.5L79,271.1z M80.2,256.5c0.9,0,1.7,0.7,1.7,1.6l0,0l0,0l16.3,3.5    c0.2-0.3,0.6-0.5,1-0.5l1-5.1h0.4l-1,5.1c0.3,0.1,0.5,0.2,0.7,0.5l9.6-5.6h0.7l-10.1,5.9v0.1l19.5,3c0.2-0.9,1-1.4,1.9-1.4l0,0    l2-7.6h0.4l-2,7.6c0.6,0.1,1.2,0.6,1.4,1.2l12.6-3.5c0-0.1,0-0.1,0-0.2c0-0.8,0.6-1.4,1.3-1.4c0.8,0,1.4,0.6,1.4,1.3    c0,0.8-0.6,1.4-1.3,1.4l0,0h-0.2l-7.4,24.7c0.2,0.1,0.3,0.2,0.5,0.3l9.4-4.8v0.3l-9.2,4.8c0.3,0.7,0,1.6-0.7,1.9s-1.6,0-1.9-0.7    c-0.1-0.2-0.1-0.4-0.1-0.6v-0.1l-46.8-15.5c-0.3,0.3-0.6,0.5-1,0.5c-0.8,0-1.4-0.6-1.4-1.3c0-0.1,0-0.2,0-0.3l-9.6-5.1    c-0.5,0.7-1.4,0.9-2.1,0.4s-0.9-1.4-0.4-2.1c0.3-0.4,0.6-0.6,1.1-0.6c-0.1-1.6-0.1-3.3-0.2-4.9c-0.8-0.2-1.3-1.1-1.1-1.9    c0.2-0.8,1.1-1.3,1.9-1.1c0.8,0.2,1.3,1.1,1.1,1.9v0.1l9-0.4C78.7,257,79.4,256.5,80.2,256.5z"/>
		<path class="st5" d="M48,227.8c40.7-2.6,81.3-4.3,122-4.3s81.4,1.8,122,4.3c0.8,0.1,2.8,0.4,2.8,2v0.3l0,0v0.3l0,0v0.3l0,0v0.7    l0,0v1l0,0v1l0,0v0.2l0,0v0.8l0,0v0.5l0,0v1l0,0v0.2l0,0v0.2l0,0v0.3l0,0v0.1l0,0v0.4c-0.1,0.5-0.1,1.4-2.7,1.4h-4.2l-0.3,8.6    c0,0,0.3,2.2-4.8,2.2H57.2c-5.2,0-4.6-2.2-4.6-2.2l-0.5-8.6h-4.2c-2.6,0-2.6-0.9-2.7-1.4v-0.4l0,0v-0.1l0,0v-0.3l0,0v-0.2l0,0    v-0.2l0,0v-1l0,0v-0.5l0,0v-0.8l0,0v-0.2l0,0v-1l0,0v-1l0,0v-0.7l0,0v-0.3l0,0v-0.3l0,0v-0.3C45.2,228.3,47.2,227.9,48,227.8"/>
		<path class="st3" d="M232.5,219.1h0.1c4.7,1.5,9.8,1.5,14.6,0h0.4v3.4c-5.1-0.3-10.1-0.5-15.1-0.7V219.1z"/>
		<path class="st3" d="M52.6,221L52.6,221c2.3,0.6,4.6,0.8,6.9,0.6s4.6-0.7,6.8-1.7h0.4v3.4c-4.7,0.1-9.4,0.3-14.1,0.4V221z"/>
		<path class="st3" d="M47.9,238.7c40.7-1.3,81.4-2.2,122-2.2c40.7,0,81.4,0.9,122.1,2.2h-4.2v7.6c0,3-2.2,3.2-5.1,3.2H57.2    c-3.7,0-5.1-0.4-5.1-3.6v-7.2H47.9z"/>
		<path class="st3" d="M274.7,220.7h0.1c2.2,0.8,4.5,1.3,6.8,1.3c2.3,0.1,4.6-0.2,6.8-1h0.4v3.4c-4.7-0.4-9.4-0.8-14.1-1.1    L274.7,220.7L274.7,220.7z"/>
		<path class="st5" d="M72,222.5v-0.3l1.1-11c0.2-1.5,0.5-1.4,1.3-1.2c1.5,0.4,3,0.7,4.6,0.8c1.6-0.1,3.1-0.5,4.6-1    c0.8-0.2,1.1-0.3,1.3,1.1l1.4,10.7C81.6,222,76.8,222.2,72,222.5 M89.5,221.6l1.5-10.7c0.2-1.5,0.5-1.4,1.3-1.1    c1.5,0.5,3,0.8,4.6,1c1.6-0.1,3.1-0.3,4.6-0.8c0.8-0.2,1.2-0.3,1.3,1.2l1,9.9C99,221.2,94.3,221.4,89.5,221.6L89.5,221.6z     M108.6,220.8l1.2-10c0.2-1.5,0.5-1.4,1.3-1.2c1.5,0.5,3,0.8,4.6,0.9c1.6-0.1,3.1-0.4,4.6-0.9c0.8-0.2,1.2-0.3,1.3,1.2l1.1,9.6    C118.1,220.5,113.3,220.6,108.6,220.8L108.6,220.8z M126.5,220.2l1.1-9.6c0.2-1.5,0.5-1.4,1.3-1.2c1.5,0.5,3,0.7,4.6,0.8    c1.6-0.1,3.1-0.4,4.6-0.8c0.8-0.2,1.2-0.3,1.3,1.2l1.1,9.3C135.8,220,131.2,220.1,126.5,220.2L126.5,220.2z M143.9,219.8l1.1-9.3    c0.2-1.5,0.5-1.4,1.3-1.2c1.5,0.5,3,0.7,4.6,0.8c1.6-0.1,3.1-0.4,4.6-0.8c0.8-0.2,1.2-0.3,1.3,1.2l1.1,9.1    C153.2,219.7,148.5,219.7,143.9,219.8L143.9,219.8z M162.1,219.6l1.1-9c0.2-1.5,0.5-1.4,1.3-1.2c1.5,0.5,3,0.8,4.6,0.9    c1.6-0.1,3.1-0.4,4.6-0.9c0.8-0.2,1.2-0.3,1.3,1.2l1.1,9h-6H162.1z M194.4,219.8l-1.1-9.3c-0.2-1.5-0.5-1.4-1.3-1.2    c-1.5,0.5-3,0.7-4.6,0.8c-1.6-0.1-3.1-0.4-4.6-0.8c-0.8-0.2-1.2-0.3-1.3,1.2l-1.1,9.1C185.1,219.6,189.8,219.7,194.4,219.8    L194.4,219.8z M211.8,220.1l-1.1-9.6c-0.2-1.5-0.5-1.4-1.3-1.2c-1.5,0.5-3,0.7-4.6,0.8c-1.6-0.1-3.1-0.4-4.6-0.8    c-0.8-0.2-1.2-0.3-1.3,1.2l-1.1,9.2C202.5,219.9,207.2,220,211.8,220.1L211.8,220.1z M229.6,220.7l-1.1-10    c-0.2-1.5-0.5-1.4-1.3-1.2c-1.5,0.5-3,0.8-4.6,0.9c-1.6-0.1-3.1-0.4-4.6-0.9c-0.8-0.2-1.2-0.3-1.3,1.2l-1.1,9.6    C220.3,220.4,225,220.6,229.6,220.7L229.6,220.7z M268.1,222.5v-0.3l-1.1-11c-0.2-1.5-0.5-1.4-1.3-1.2c-1.5,0.4-3,0.7-4.6,0.8    c-1.6-0.1-3.1-0.5-4.6-1c-0.8-0.2-1.1-0.3-1.3,1.1l-1.4,10.7C258.5,222,263.3,222.3,268.1,222.5L268.1,222.5z"/>
		<path class="st4" d="M78.1,210.7c-0.8,0.4-1.6,0.6-2.5,0.7c-1.1,0-1.3,3.6-1.8,6.1c-0.2,1.4-0.8,2.6-1.7,3.7l1-10    c0.2-1.5,0.5-1.4,1.3-1.2C75.6,210.4,76.8,210.6,78.1,210.7"/>
		<path class="st3" d="M75.1,222.3c3.8-0.2,7.5-0.4,11.3-0.6L84.9,211c-0.2-1.5-0.5-1.4-1.3-1.1c-1.3,0.4-2.6,0.7-4,0.9    C83.3,216,79.2,220.1,75.1,222.3"/>
		<path class="st4" d="M91.6,217.3c0.7-1.8,0.6-5.6,1-5.9s0.5,0,1.5,0c0.7-0.1,1.4-0.3,2-0.8c-1.2-0.2-2.5-0.5-3.6-0.8    c-0.8-0.2-1.1-0.3-1.3,1.1l-1.2,8.6C90.6,218.9,91.2,218.1,91.6,217.3"/>
		<path class="st3" d="M99,212.3c1.6,3.6-1.6,7.1-4,9c2.9-0.1,5.8-0.3,8.7-0.4l-1-9.9c-0.1-1.5-0.5-1.4-1.3-1.2    c-1.1,0.3-2.2,0.5-3.3,0.7C98.5,211.2,98.8,211.7,99,212.3"/>
		<path class="st3" d="M113.3,220.6c3.1-0.1,6.3-0.2,9.4-0.3l-1.1-9.6c-0.2-1.5-0.5-1.4-1.3-1.2c-1.2,0.4-2.5,0.6-3.8,0.8    c1.3,0.7,2.1,1.7,1.3,4.4C117,217,114.9,219.3,113.3,220.6"/>
		<path class="st4" d="M110.2,217.3c0.8-1.9,0.4-6,1.1-6.2s2,0.4,3,0.1c0.4-0.1,0.8-0.4,0.9-0.9c-1.3-0.1-2.7-0.4-3.9-0.8    c-0.8-0.2-1.2-0.3-1.3,1.2l-1,8.3C109.5,218.6,109.9,218,110.2,217.3"/>
		<path class="st4" d="M128.9,209.5c-0.8-0.2-1.2-0.3-1.3,1.2l-1,8.1c0.5-0.5,1-1,1.4-1.6c0.7-1.2,0.8-5.9,1.2-6s1.4,0.3,2.4,0.1    c0.6-0.1,1.1-0.4,1.5-0.9C131.7,210.2,130.3,209.9,128.9,209.5"/>
		<path class="st3" d="M134.4,210.3c1.4,1,2,2.7,1.5,4.3c-0.6,2.5-3.5,4.5-5.2,5.5c3.3-0.1,6.6-0.2,9.9-0.2l-1.1-9.3    c-0.2-1.5-0.5-1.4-1.3-1.2C136.9,209.8,135.6,210.1,134.4,210.3"/>
		<path class="st4" d="M145,210.5l-1,8.2c0.6-0.3,1.1-0.8,1.5-1.4c0.4-1,1-6.2,1.3-6.3s1.5,0.3,2.3,0c0.5-0.2,0.9-0.5,1.2-1    c-1.3-0.2-2.6-0.4-3.8-0.8C145.6,209.1,145.2,209,145,210.5"/>
		<path class="st3" d="M153.4,214.5c-1.1,2.2-3.7,4-5.8,5.2c3.4,0,6.9-0.1,10.3-0.1l-1.1-9.1c-0.2-1.5-0.5-1.4-1.3-1.2    s-1.5,0.4-2.3,0.6C154.2,210.7,154.6,212.1,153.4,214.5"/>
		<path class="st4" d="M163.1,210.6l-1,7.8c0.7-0.4,1.2-1,1.6-1.7c0.6-1.4,0.6-4.4,0.7-5.2c0.1-0.8,1-0.4,2.5-0.1    c0.8,0.2,1.7-0.3,2-1.1c-1.6-0.1-3.1-0.4-4.6-0.9C163.6,209.2,163.3,209.1,163.1,210.6"/>
		<path class="st3" d="M171.8,213.9c-0.5,1.7-2.9,4-5,5.7h3.2h6l-1.1-9c-0.2-1.5-0.5-1.4-1.3-1.2c-0.9,0.3-1.8,0.5-2.7,0.6    C171.8,210.6,172.4,211.6,171.8,213.9"/>
		<path class="st3" d="M183.7,219.6c3.6,0,7.1,0.1,10.7,0.1l-1.1-9.3c-0.2-1.5-0.5-1.4-1.3-1.2c-0.9,0.3-1.9,0.5-2.9,0.7    c0.6,1.1,0.7,2.4,0.3,3.6C189,215.5,186.3,217.8,183.7,219.6"/>
		<path class="st3" d="M207.3,214.5c-0.7,2.2-3.3,4.1-5.8,5.5c3.4,0.1,6.9,0.1,10.4,0.2l-1.1-9.6c-0.2-1.5-0.5-1.4-1.3-1.2    c-1,0.3-1.9,0.5-2.9,0.7C207.3,211,207.9,212.3,207.3,214.5"/>
		<path class="st3" d="M225,214.3c-0.4,2.4-2.7,4.8-4.4,6.1c3,0.1,6,0.2,9.1,0.3l-1.2-10c-0.2-1.5-0.5-1.4-1.3-1.2    c-1,0.3-1.9,0.5-2.8,0.7C225.1,211.5,225.3,212.9,225,214.3"/>
		<path class="st3" d="M264,214.7c-1,2.3-5,5.5-7.3,7.2c3.8,0.2,7.6,0.4,11.4,0.6v-0.3l-1.1-11c-0.2-1.5-0.5-1.4-1.3-1.2    c-1,0.3-2.1,0.5-3.2,0.7C263.6,211.5,264.8,212.9,264,214.7"/>
		<path class="st4" d="M185.7,211.2c0.7-0.1,1.3-0.5,1.8-1c-1.6-0.1-3.1-0.4-4.6-0.8c-0.8-0.2-1.2-0.3-1.3,1.2l-1,7.8    c0.5-0.3,0.9-0.7,1.2-1.2c0.4-0.8,0.7-5.7,1-5.9C183,211,184.5,211.4,185.7,211.2"/>
		<path class="st4" d="M200.2,209.5c-0.8-0.2-1.2-0.3-1.3,1.2l-1,8.2c0.5-0.3,1-0.6,1.4-1c0.6-0.8,0.7-6.1,1-6.4    c0.3-0.4,1.5,0,2.4,0.1s1.7-1.1,1.7-1.1C203,210.1,201.6,209.9,200.2,209.5"/>
		<path class="st4" d="M218,209.6c-0.8-0.2-1.2-0.3-1.3,1.2l-1,8c0.8-0.3,1.4-0.8,1.7-1.6c0.4-1.4,0.6-5.9,1-5.9    c0.7,0.1,1.3,0.2,2,0.2c0.8-0.1,1.1-1.1,1.1-1.1C220.4,210.2,219.2,209.9,218,209.6"/>
		<path class="st4" d="M256.5,209.9c-0.8-0.2-1.1-0.3-1.3,1.1l-1.1,8.5c0.6-0.2,1.2-0.5,1.5-1.1c0.5-1.1,0.7-6.5,1.3-6.9    c0.6-0.5,1.8,0.3,2.4,0.2s1-1,1-1C259,210.6,257.7,210.3,256.5,209.9"/>
		<path class="st4" d="M48,227.8c-0.8,0.1-2.8,0.4-2.8,2v0.3l0,0v0.3l0,0v0.3l0,0v0.7l0,0v1l0,0v1l0,0v0.2l0,0v0.8l0,0v0.5l0,0v1    l0,0v0.2l0,0v0.5l0,0v0.1l0,0v0.4c0.1,0.5,0.6,1.4,2.7,1.4l0,0l6.6-0.2c11.2-0.3,22.4-0.7,33.6-1c-13-1.3-27.7-2.9-33.6-3.9    c-0.9-0.1-1.7-0.3-2.6-0.6c-1.8-0.8-2.9-2.7-2.9-4.6l-0.3-0.5L48,227.8"/>
		<path class="st7" d="M253,225.6c1.1,3.4,0.5,7.2-1.6,10.1c-0.4,0.7-1,1.2-1.5,1.8c11.9,0.3,23.7,0.6,35.6,1l6.7,0.2l0,0    c2.1,0,2.6-0.9,2.7-1.4v-0.4l0,0v-0.1l0,0v-0.5l0,0v-0.2l0,0v-1l0,0v-0.5l0,0v-0.8l0,0v-0.2l0,0v-1l0,0v-1l0,0v-0.7l0,0v-0.3l0,0    v-0.3l0,0V230c0-1.6-2-2-2.8-2l-6.7-0.4C274.6,226.8,263.8,226.2,253,225.6"/>
	</g>
</g>
<g>
	<g>
		<path class="st8" d="M188.7,273.3C188.7,273.2,188.7,273.2,188.7,273.3c0-0.5-0.2-0.9-0.5-1.3c0,0,0,0-0.1,0l0,0    c-0.1-0.1-0.1-0.1-0.2-0.1l-17.4-10.1l-0.1-0.1c-0.3-0.1-0.5-0.2-0.8-0.2c-0.2,0-0.3,0-0.5,0.1c-0.1,0-0.2,0.1-0.3,0.2L151.5,272    c-0.5,0.3-0.8,0.8-0.8,1.4l0,0l0,0v20.1c0,0.6,0.4,1.2,0.8,1.4l17.4,10.1c0,0,0.1,0,0.1,0.1l0,0c0.1,0,0.1,0,0.2,0.1l0,0    c0.1,0,0.1,0,0.2,0l0,0c0.1,0,0.1,0,0.2,0l0,0c0.1,0,0.1,0,0.2,0s0.1,0,0.2,0l0,0c0.1,0,0.1,0,0.2,0l0,0c0.1,0,0.1,0,0.2,0l0,0    c0.1,0,0.1,0,0.2-0.1l0,0c0,0,0.1,0,0.1-0.1l17.4-10.1c0.5-0.3,0.8-0.8,0.8-1.4L188.7,273.3L188.7,273.3 M157.5,272.6l11.9-6.8    c0.3-0.2,0.5-0.2,0.7,0l11.9,6.8c0.5,0.3,0.5,1,0,1.4l-11.9,6.8c-0.3,0.2-0.5,0.2-0.7,0l-11.9-6.8    C156.9,273.6,156.9,272.9,157.5,272.6 M167.6,298.6c0,0.5-0.6,1-1.2,0.6l-11.8-6.8c-0.3-0.2-0.4-0.4-0.4-0.6v-13.7    c0-0.5,0.6-1,1.2-0.6l11.8,6.8c0.3,0.2,0.4,0.4,0.4,0.6V298.6z M185.1,291.8c0,0.3-0.2,0.5-0.4,0.6l-11.8,6.8    c-0.5,0.3-1.2-0.1-1.2-0.6V285c0-0.3,0.2-0.5,0.4-0.6l11.8-6.8c0.5-0.3,1.2,0.1,1.2,0.6V291.8z"/>
	</g>
</g>
</svg>